<?xml version="1.0" encoding="UTF-8" standalone="no"?>
<svg
   xmlns:osb="http://www.openswatchbook.org/uri/2009/osb"
   xmlns:dc="http://purl.org/dc/elements/1.1/"
   xmlns:cc="http://creativecommons.org/ns#"
   xmlns:rdf="http://www.w3.org/1999/02/22-rdf-syntax-ns#"
   xmlns:svg="http://www.w3.org/2000/svg"
   xmlns="http://www.w3.org/2000/svg"
   xmlns:xlink="http://www.w3.org/1999/xlink"
   xmlns:sodipodi="http://sodipodi.sourceforge.net/DTD/sodipodi-0.dtd"
   xmlns:inkscape="http://www.inkscape.org/namespaces/inkscape"
   version="1.1"
   id="svg"
   x="0px"
   y="0px"
   width="99.212593"
   height="148.81889"
   viewBox="0 0 79.370072 119.05614"
   xml:space="preserve"
   
   ><metadata
   id="metadata347"><rdf:RDF><cc:Work
       rdf:about=""><dc:format>image/svg+xml</dc:format><dc:type
         rdf:resource="http://purl.org/dc/dcmitype/StillImage" /><dc:title /></cc:Work></rdf:RDF></metadata><defs
   id="defs345"><linearGradient
   id="linearGradient3767"
   osb:paint="solid"><stop
     style="stop-color:#ffffff;stop-opacity:1;"
     offset="0"
     id="stop3769" /></linearGradient>
	
	
	
	
	
	
	
	
	
	
	
	
	
	
	
	
	
	
	
	
	
	
	
	
	
	
	
	
	
	
	
	
	
	
	
	
	
	
	
	
<linearGradient
   xlink:href="#linearGradient3767"
   id="linearGradient3771"
   x1="1.0086074"
   y1="60.032539"
   x2="78.697784"
   y2="60.032539"
   gradientUnits="userSpaceOnUse"
   gradientTransform="translate(0,-1.0258064e-5)" /></defs><sodipodi:namedview
   pagecolor="#88ffff"
   bordercolor="#666666"
   borderopacity="1"
   objecttolerance="10"
   gridtolerance="10"
   guidetolerance="10"
   id="namedview343"
   showgrid="true"
   showguides="true"
   units="mm"
   
   
   
   
   
   
   
   
   
   
   
   ><inkscape:grid
     type="xygrid"
     id="grid3002"
     empspacing="5"
     visible="true"
     enabled="true"
     snapvisiblegridlinesonly="true"
     spacingx="2.54mm"
     spacingy="2.54mm"
     units="mm" /></sodipodi:namedview>

























<g
   id="g3674"
   transform="translate(-19.455035,3.5800306)"><circle
     
     
     
     
     transform="matrix(0.07200062,0,0,0.07200062,22.499851,57.135607)"
     style="fill:none;stroke:#ffbf00;stroke-width:20"
     d="m 987.5,660 c 0,15.18783 -12.31217,27.5 -27.5,27.5 -15.18783,0 -27.5,-12.31217 -27.5,-27.5 0,-15.18783 12.31217,-27.5 27.5,-27.5 15.18783,0 27.5,12.31217 27.5,27.5 z"
     r="27.5"
     id="connector14"
     cy="660"
     cx="960" /><circle
     
     
     
     
     transform="matrix(0.07200062,0,0,0.07200062,22.499851,-36.465199)"
     style="fill:none;stroke:#ffbf00;stroke-width:20"
     d="m 987.5,660 c 0,15.18783 -12.31217,27.5 -27.5,27.5 -15.18783,0 -27.5,-12.31217 -27.5,-27.5 0,-15.18783 12.31217,-27.5 27.5,-27.5 15.18783,0 27.5,12.31217 27.5,27.5 z"
     r="27.5"
     id="connector1"
     cy="660"
     cx="960" /><circle
     
     
     
     
     transform="matrix(0.07200062,0,0,0.07200062,22.499851,-29.265137)"
     style="fill:none;stroke:#ffbf00;stroke-width:20"
     d="m 987.5,660 c 0,15.18783 -12.31217,27.5 -27.5,27.5 -15.18783,0 -27.5,-12.31217 -27.5,-27.5 0,-15.18783 12.31217,-27.5 27.5,-27.5 15.18783,0 27.5,12.31217 27.5,27.5 z"
     r="27.5"
     id="connector2"
     cy="660"
     cx="960" /><circle
     
     
     
     
     transform="matrix(0.07200062,0,0,0.07200062,22.499851,-22.065075)"
     style="fill:none;stroke:#ffbf00;stroke-width:20"
     d="m 987.5,660 c 0,15.18783 -12.31217,27.5 -27.5,27.5 -15.18783,0 -27.5,-12.31217 -27.5,-27.5 0,-15.18783 12.31217,-27.5 27.5,-27.5 15.18783,0 27.5,12.31217 27.5,27.5 z"
     r="27.5"
     id="connector3"
     cy="660"
     cx="960" /><circle
     
     
     
     
     transform="matrix(0.07200062,0,0,0.07200062,22.499851,-14.865013)"
     style="fill:none;stroke:#ffbf00;stroke-width:20"
     d="m 987.5,660 c 0,15.18783 -12.31217,27.5 -27.5,27.5 -15.18783,0 -27.5,-12.31217 -27.5,-27.5 0,-15.18783 12.31217,-27.5 27.5,-27.5 15.18783,0 27.5,12.31217 27.5,27.5 z"
     r="27.5"
     id="connector4"
     cy="660"
     cx="960" /><circle
     
     
     
     
     transform="matrix(0.07200062,0,0,0.07200062,22.499851,-7.6649512)"
     style="fill:none;stroke:#ffbf00;stroke-width:20"
     d="m 987.5,660 c 0,15.18783 -12.31217,27.5 -27.5,27.5 -15.18783,0 -27.5,-12.31217 -27.5,-27.5 0,-15.18783 12.31217,-27.5 27.5,-27.5 15.18783,0 27.5,12.31217 27.5,27.5 z"
     r="27.5"
     id="connector5"
     cy="660"
     cx="960" /><circle
     
     
     
     
     transform="matrix(0.07200062,0,0,0.07200062,22.499851,-0.46488923)"
     style="fill:none;stroke:#ffbf00;stroke-width:20"
     d="m 987.5,660 c 0,15.18783 -12.31217,27.5 -27.5,27.5 -15.18783,0 -27.5,-12.31217 -27.5,-27.5 0,-15.18783 12.31217,-27.5 27.5,-27.5 15.18783,0 27.5,12.31217 27.5,27.5 z"
     r="27.5"
     id="connector6"
     cy="660"
     cx="960" /><circle
     
     
     
     
     transform="matrix(0.07200062,0,0,0.07200062,22.499851,6.7351728)"
     style="fill:none;stroke:#ffbf00;stroke-width:20"
     d="m 987.5,660 c 0,15.18783 -12.31217,27.5 -27.5,27.5 -15.18783,0 -27.5,-12.31217 -27.5,-27.5 0,-15.18783 12.31217,-27.5 27.5,-27.5 15.18783,0 27.5,12.31217 27.5,27.5 z"
     r="27.5"
     id="connector7"
     cy="660"
     cx="960" /><circle
     
     
     
     
     transform="matrix(0.07200062,0,0,0.07200062,22.499851,13.935235)"
     style="fill:none;stroke:#ffbf00;stroke-width:20"
     d="m 987.5,660 c 0,15.18783 -12.31217,27.5 -27.5,27.5 -15.18783,0 -27.5,-12.31217 -27.5,-27.5 0,-15.18783 12.31217,-27.5 27.5,-27.5 15.18783,0 27.5,12.31217 27.5,27.5 z"
     r="27.5"
     id="connector8"
     cy="660"
     cx="960" /><circle
     
     
     
     
     transform="matrix(0.07200062,0,0,0.07200062,22.499851,21.135297)"
     style="fill:none;stroke:#ffbf00;stroke-width:20"
     d="m 987.5,660 c 0,15.18783 -12.31217,27.5 -27.5,27.5 -15.18783,0 -27.5,-12.31217 -27.5,-27.5 0,-15.18783 12.31217,-27.5 27.5,-27.5 15.18783,0 27.5,12.31217 27.5,27.5 z"
     r="27.5"
     id="connector9"
     cy="660"
     cx="960" /><circle
     
     
     
     
     transform="matrix(0.07200062,0,0,0.07200062,22.499851,28.335359)"
     style="fill:none;stroke:#ffbf00;stroke-width:20"
     d="m 987.5,660 c 0,15.18783 -12.31217,27.5 -27.5,27.5 -15.18783,0 -27.5,-12.31217 -27.5,-27.5 0,-15.18783 12.31217,-27.5 27.5,-27.5 15.18783,0 27.5,12.31217 27.5,27.5 z"
     r="27.5"
     id="connector10"
     cy="660"
     cx="960" /><circle
     
     
     
     
     transform="matrix(0.07200062,0,0,0.07200062,22.499851,35.535421)"
     style="fill:none;stroke:#ffbf00;stroke-width:20"
     d="m 987.5,660 c 0,15.18783 -12.31217,27.5 -27.5,27.5 -15.18783,0 -27.5,-12.31217 -27.5,-27.5 0,-15.18783 12.31217,-27.5 27.5,-27.5 15.18783,0 27.5,12.31217 27.5,27.5 z"
     r="27.5"
     id="connector11"
     cy="660"
     cx="960" /><circle
     
     
     
     
     transform="matrix(0.07200062,0,0,0.07200062,22.499851,42.735483)"
     style="fill:none;stroke:#ffbf00;stroke-width:20"
     d="m 987.5,660 c 0,15.18783 -12.31217,27.5 -27.5,27.5 -15.18783,0 -27.5,-12.31217 -27.5,-27.5 0,-15.18783 12.31217,-27.5 27.5,-27.5 15.18783,0 27.5,12.31217 27.5,27.5 z"
     r="27.5"
     id="connector12"
     cy="660"
     cx="960" /><circle
     
     
     
     
     transform="matrix(0.07200062,0,0,0.07200062,22.499851,49.935545)"
     style="fill:none;stroke:#ffbf00;stroke-width:20"
     d="m 987.5,660 c 0,15.18783 -12.31217,27.5 -27.5,27.5 -15.18783,0 -27.5,-12.31217 -27.5,-27.5 0,-15.18783 12.31217,-27.5 27.5,-27.5 15.18783,0 27.5,12.31217 27.5,27.5 z"
     r="27.5"
     id="connector13"
     cy="660"
     cx="960" /></g><rect
   style="fill:none;stroke:url(#linearGradient3771);stroke-width:0.48000413;stroke-miterlimit:4;stroke-dasharray:none"
   id="rect2997"
   width="77.689178"
   height="118.04718"
   x="1.0086074"
   y="1.0089471" /><text
   font-size="17.98"
   id="text200"
   style="font-size:16.85861206px;fill:#ffffff;fill-opacity:1;font-family:DroidSans"
   x="15.817332"
   y="48.986481"
   transform="scale(1.0159405,0.98430961)">Minia</text>



</svg>