<?xml version="1.0" encoding="UTF-8" standalone="no"?>
<svg
   xmlns:dc="http://purl.org/dc/elements/1.1/"
   xmlns:cc="http://creativecommons.org/ns#"
   xmlns:rdf="http://www.w3.org/1999/02/22-rdf-syntax-ns#"
   xmlns:svg="http://www.w3.org/2000/svg"
   xmlns="http://www.w3.org/2000/svg"
   xmlns:sodipodi="http://sodipodi.sourceforge.net/DTD/sodipodi-0.dtd"
   xmlns:inkscape="http://www.inkscape.org/namespaces/inkscape"
   version="1.1"
   id="svg"
   x="0px"
   y="0px"
   width="99.212593"
   height="148.81889"
   viewBox="0 0 79.370072 119.05614"
   xml:space="preserve"
   inkscape:version="0.48.0 r9654"
   sodipodi:docname="Minia_breadboard.svg"
   inkscape:export-filename="C:\Users\dario\Desktop\Minia_breadboard.png"
   inkscape:export-xdpi="362.8378"
   inkscape:export-ydpi="362.8378"><metadata
   id="metadata347"><rdf:RDF><cc:Work
       rdf:about=""><dc:format>image/svg+xml</dc:format><dc:type
         rdf:resource="http://purl.org/dc/dcmitype/StillImage" /><dc:title></dc:title></cc:Work></rdf:RDF></metadata><defs
   id="defs345">
	
	
	
	
	
	
	
	
	
	
	
	
	
	
	
	
	
	
	
	
	
	
	
	
	
	
	
	
	
	
	
	
	
	
	
	
	
	
	
	












</defs><sodipodi:namedview
   pagecolor="#ffffff"
   bordercolor="#666666"
   borderopacity="1"
   objecttolerance="10"
   gridtolerance="10"
   guidetolerance="10"
   id="namedview343"
   showgrid="true"
   showguides="true"
   units="mm"
   inkscape:guide-bbox="true"
   inkscape:zoom="2.9795302"
   inkscape:cx="9.3416595"
   inkscape:cy="97.385504"
   inkscape:window-width="1280"
   inkscape:window-height="750"
   inkscape:window-x="-8"
   inkscape:window-y="-8"
   inkscape:window-maximized="1"
   inkscape:current-layer="svg"><inkscape:grid
     type="xygrid"
     id="grid3122"
     empspacing="5"
     visible="true"
     enabled="true"
     snapvisiblegridlinesonly="true"
     units="mm"
     spacingx="2.54mm"
     spacingy="2.54mm" /></sodipodi:namedview>
























<rect
   style="fill:#008000;fill-rule:evenodd;stroke:#000000;stroke-width:0.61366463px;stroke-linecap:butt;stroke-linejoin:miter;stroke-opacity:1"
   id="rect3482"
   width="78.757095"
   height="118.44247"
   x="-0.053344712"
   y="0.84744805" /><g
   id="USBPlug"
   transform="translate(13.147398,0.90438974)"><desc
   id="desc3488">Plug USB</desc><title
   id="title3486">USB Plug</title>
		<g
   id="g187">
			<path
   style="fill:#9a916c"
   id="path189"
   d="m 43.856,30.498 c 1.988,0 3.598,-1.609 3.598,-3.598 0,-1.985 -1.609,-3.598 -3.598,-3.598 -1.986,0 -3.598,1.612 -3.598,3.598 10e-4,1.988 1.612,3.598 3.598,3.598 z" />
			<circle
   style="fill:#3a3a3a"
   id="circle191"
   r="2.7079999"
   cy="26.896999"
   cx="43.855999"
   d="m 46.563999,26.896999 c 0,1.495587 -1.212413,2.708 -2.708,2.708 -1.495587,0 -2.708,-1.212413 -2.708,-2.708 0,-1.495587 1.212413,-2.708 2.708,-2.708 1.495587,0 2.708,1.212413 2.708,2.708 z" />
		</g>
		<g
   id="g193">
			<path
   style="fill:#9a916c"
   id="path195"
   d="m 9.836,30.498 c 1.988,0 3.598,-1.609 3.598,-3.598 0,-1.985 -1.609,-3.598 -3.598,-3.598 -1.985,0 -3.598,1.612 -3.598,3.598 10e-4,1.988 1.613,3.598 3.598,3.598 z" />
			<circle
   style="fill:#3a3a3a"
   id="circle197"
   r="2.7079999"
   cy="26.896999"
   cx="9.8360004"
   d="m 12.544,26.896999 c 0,1.495587 -1.212412,2.708 -2.7079996,2.708 -1.495587,0 -2.7079999,-1.212413 -2.7079999,-2.708 0,-1.495587 1.2124129,-2.708 2.7079999,-2.708 1.4955876,0 2.7079996,1.212413 2.7079996,2.708 z" />
		</g>
		<g
   id="g199">
			<rect
   style="fill:#676666"
   y="0"
   id="rect201"
   height="45.071999"
   width="34.02"
   x="9.8360004" />
			<g
   style="opacity:0.3"
   id="g203">
				<line
   style="fill:none;stroke:#e6e6e6;stroke-width:0.25"
   id="line205"
   y2="33.769001"
   x2="9.8360004"
   y1="33.769001"
   x1="43.532001" />
				<line
   style="fill:none;stroke:#808080;stroke-width:0.25"
   id="line207"
   y2="33.888"
   x2="9.8360004"
   y1="33.888"
   x1="43.532001" />
			</g>
			<polyline
   style="fill:none;stroke:#cccccc;stroke-width:0.5;stroke-linejoin:round;stroke-opacity:0.2"
   id="polyline209"
   points="10.469,44.46      43.581,44.46 43.581,2.428    " />
		</g>
	</g><g
   id="g3561"
   transform="translate(-19.184817,1.1737628)"><g
     transform="matrix(1.323205,0,0,1.2444349,-167.315,102.70039)"
     id="connector7"><desc
       id="desc3550">Pin</desc><rect
       x="192.38522"
       y="-39.872372"
       width="5.7472491"
       height="5.7424493"
       id="rect461"
       style="fill:#404040" /><rect
       x="194.14842"
       y="-38.110756"
       width="2.2184191"
       height="2.2184191"
       id="rect463" /><polygon
       points="131.868,3.087 132.89,4.11 135.664,4.11 136.687,3.087 "
       id="polygon465"
       style="fill:#2a2a29"
       transform="matrix(0.80000686,0,0,0.80000686,87.833923,-41.398783)" /><polygon
       points="136.687,3.087 135.664,4.113 135.664,6.885 136.687,7.906 "
       id="polygon467"
       style="fill:#474747"
       transform="matrix(0.80000686,0,0,0.80000686,87.833923,-41.398783)" /><polygon
       points="136.686,7.906 135.663,6.885 132.89,6.885 131.868,7.906 "
       id="polygon469"
       style="fill:#595959"
       transform="matrix(0.80000686,0,0,0.80000686,87.833923,-41.398783)" /><polygon
       points="131.866,7.906 132.89,6.883 132.89,4.11 131.866,3.087 "
       id="polygon471"
       style="fill:#373737"
       transform="matrix(0.80000686,0,0,0.80000686,87.833923,-41.398783)" /></g><g
     transform="matrix(1.323205,0,0,1.2444349,-167.315,109.90045)"
     id="connector8"><desc
       id="desc3550-3">Pin</desc><rect
       x="192.38522"
       y="-39.872372"
       width="5.7472491"
       height="5.7424493"
       id="rect461-4"
       style="fill:#404040" /><rect
       x="194.14842"
       y="-38.110756"
       width="2.2184191"
       height="2.2184191"
       id="rect463-5" /><polygon
       points="131.868,3.087 132.89,4.11 135.664,4.11 136.687,3.087 "
       id="polygon465-2"
       style="fill:#2a2a29"
       transform="matrix(0.80000686,0,0,0.80000686,87.833923,-41.398783)" /><polygon
       points="136.687,3.087 135.664,4.113 135.664,6.885 136.687,7.906 "
       id="polygon467-2"
       style="fill:#474747"
       transform="matrix(0.80000686,0,0,0.80000686,87.833923,-41.398783)" /><polygon
       points="136.686,7.906 135.663,6.885 132.89,6.885 131.868,7.906 "
       id="polygon469-6"
       style="fill:#595959"
       transform="matrix(0.80000686,0,0,0.80000686,87.833923,-41.398783)" /><polygon
       points="131.866,7.906 132.89,6.883 132.89,4.11 131.866,3.087 "
       id="polygon471-4"
       style="fill:#373737"
       transform="matrix(0.80000686,0,0,0.80000686,87.833923,-41.398783)" /></g><g
     transform="matrix(1.323205,0,0,1.2444349,-167.315,88.300266)"
     id="connector5"><desc
       id="desc3550-1">Pin</desc><rect
       x="192.38522"
       y="-39.872372"
       width="5.7472491"
       height="5.7424493"
       id="rect461-2"
       style="fill:#404040" /><rect
       x="194.14842"
       y="-38.110756"
       width="2.2184191"
       height="2.2184191"
       id="rect463-4" /><polygon
       points="135.664,4.11 136.687,3.087 131.868,3.087 132.89,4.11 "
       id="polygon465-6"
       style="fill:#2a2a29"
       transform="matrix(0.80000686,0,0,0.80000686,87.833923,-41.398783)" /><polygon
       points="135.664,6.885 136.687,7.906 136.687,3.087 135.664,4.113 "
       id="polygon467-26"
       style="fill:#474747"
       transform="matrix(0.80000686,0,0,0.80000686,87.833923,-41.398783)" /><polygon
       points="132.89,6.885 131.868,7.906 136.686,7.906 135.663,6.885 "
       id="polygon469-61"
       style="fill:#595959"
       transform="matrix(0.80000686,0,0,0.80000686,87.833923,-41.398783)" /><polygon
       points="132.89,4.11 131.866,3.087 131.866,7.906 132.89,6.883 "
       id="polygon471-3"
       style="fill:#373737"
       transform="matrix(0.80000686,0,0,0.80000686,87.833923,-41.398783)" /></g><g
     transform="matrix(1.323205,0,0,1.2444349,-167.315,95.500328)"
     id="connector6"><desc
       id="desc3550-3-8">Pin</desc><rect
       x="192.38522"
       y="-39.872372"
       width="5.7472491"
       height="5.7424493"
       id="rect461-4-2"
       style="fill:#404040" /><rect
       x="194.14842"
       y="-38.110756"
       width="2.2184191"
       height="2.2184191"
       id="rect463-5-6" /><polygon
       points="135.664,4.11 136.687,3.087 131.868,3.087 132.89,4.11 "
       id="polygon465-2-7"
       style="fill:#2a2a29"
       transform="matrix(0.80000686,0,0,0.80000686,87.833923,-41.398783)" /><polygon
       points="135.664,6.885 136.687,7.906 136.687,3.087 135.664,4.113 "
       id="polygon467-2-8"
       style="fill:#474747"
       transform="matrix(0.80000686,0,0,0.80000686,87.833923,-41.398783)" /><polygon
       points="132.89,6.885 131.868,7.906 136.686,7.906 135.663,6.885 "
       id="polygon469-6-1"
       style="fill:#595959"
       transform="matrix(0.80000686,0,0,0.80000686,87.833923,-41.398783)" /><polygon
       points="132.89,4.11 131.866,3.087 131.866,7.906 132.89,6.883 "
       id="polygon471-4-4"
       style="fill:#373737"
       transform="matrix(0.80000686,0,0,0.80000686,87.833923,-41.398783)" /></g><g
     transform="matrix(1.323205,0,0,1.2444349,-167.315,73.900142)"
     id="connector3"><desc
       id="desc3550-6">Pin</desc><rect
       x="192.38522"
       y="-39.872372"
       width="5.7472491"
       height="5.7424493"
       id="rect461-5"
       style="fill:#404040" /><rect
       x="194.14842"
       y="-38.110756"
       width="2.2184191"
       height="2.2184191"
       id="rect463-0" /><polygon
       points="131.868,3.087 132.89,4.11 135.664,4.11 136.687,3.087 "
       id="polygon465-0"
       style="fill:#2a2a29"
       transform="matrix(0.80000686,0,0,0.80000686,87.833923,-41.398783)" /><polygon
       points="136.687,3.087 135.664,4.113 135.664,6.885 136.687,7.906 "
       id="polygon467-4"
       style="fill:#474747"
       transform="matrix(0.80000686,0,0,0.80000686,87.833923,-41.398783)" /><polygon
       points="136.686,7.906 135.663,6.885 132.89,6.885 131.868,7.906 "
       id="polygon469-8"
       style="fill:#595959"
       transform="matrix(0.80000686,0,0,0.80000686,87.833923,-41.398783)" /><polygon
       points="131.866,7.906 132.89,6.883 132.89,4.11 131.866,3.087 "
       id="polygon471-8"
       style="fill:#373737"
       transform="matrix(0.80000686,0,0,0.80000686,87.833923,-41.398783)" /></g><g
     transform="matrix(1.323205,0,0,1.2444349,-167.315,81.100204)"
     id="connector4"><desc
       id="desc3550-3-7">Pin</desc><rect
       x="192.38522"
       y="-39.872372"
       width="5.7472491"
       height="5.7424493"
       id="rect461-4-0"
       style="fill:#404040" /><rect
       x="194.14842"
       y="-38.110756"
       width="2.2184191"
       height="2.2184191"
       id="rect463-5-7" /><polygon
       points="135.664,4.11 136.687,3.087 131.868,3.087 132.89,4.11 "
       id="polygon465-2-0"
       style="fill:#2a2a29"
       transform="matrix(0.80000686,0,0,0.80000686,87.833923,-41.398783)" /><polygon
       points="135.664,6.885 136.687,7.906 136.687,3.087 135.664,4.113 "
       id="polygon467-2-7"
       style="fill:#474747"
       transform="matrix(0.80000686,0,0,0.80000686,87.833923,-41.398783)" /><polygon
       points="132.89,6.885 131.868,7.906 136.686,7.906 135.663,6.885 "
       id="polygon469-6-2"
       style="fill:#595959"
       transform="matrix(0.80000686,0,0,0.80000686,87.833923,-41.398783)" /><polygon
       points="132.89,4.11 131.866,3.087 131.866,7.906 132.89,6.883 "
       id="polygon471-4-7"
       style="fill:#373737"
       transform="matrix(0.80000686,0,0,0.80000686,87.833923,-41.398783)" /></g><g
     transform="matrix(1.323205,0,0,1.2444349,-167.315,117.10051)"
     id="connector9"><desc
       id="desc3550-0">Pin</desc><rect
       x="192.38522"
       y="-39.872372"
       width="5.7472491"
       height="5.7424493"
       id="rect461-7"
       style="fill:#404040" /><rect
       x="194.14842"
       y="-38.110756"
       width="2.2184191"
       height="2.2184191"
       id="rect463-01" /><polygon
       points="132.89,4.11 135.664,4.11 136.687,3.087 131.868,3.087 "
       id="polygon465-8"
       style="fill:#2a2a29"
       transform="matrix(0.80000686,0,0,0.80000686,87.833923,-41.398783)" /><polygon
       points="135.664,4.113 135.664,6.885 136.687,7.906 136.687,3.087 "
       id="polygon467-6"
       style="fill:#474747"
       transform="matrix(0.80000686,0,0,0.80000686,87.833923,-41.398783)" /><polygon
       points="135.663,6.885 132.89,6.885 131.868,7.906 136.686,7.906 "
       id="polygon469-81"
       style="fill:#595959"
       transform="matrix(0.80000686,0,0,0.80000686,87.833923,-41.398783)" /><polygon
       points="132.89,6.883 132.89,4.11 131.866,3.087 131.866,7.906 "
       id="polygon471-36"
       style="fill:#373737"
       transform="matrix(0.80000686,0,0,0.80000686,87.833923,-41.398783)" /></g><g
     transform="matrix(1.323205,0,0,1.2444349,-167.315,124.30058)"
     id="connector10"><desc
       id="desc3550-3-4">Pin</desc><rect
       x="192.38522"
       y="-39.872372"
       width="5.7472491"
       height="5.7424493"
       id="rect461-4-8"
       style="fill:#404040" /><rect
       x="194.14842"
       y="-38.110756"
       width="2.2184191"
       height="2.2184191"
       id="rect463-5-2" /><polygon
       points="135.664,4.11 136.687,3.087 131.868,3.087 132.89,4.11 "
       id="polygon465-2-8"
       style="fill:#2a2a29"
       transform="matrix(0.80000686,0,0,0.80000686,87.833923,-41.398783)" /><polygon
       points="135.664,6.885 136.687,7.906 136.687,3.087 135.664,4.113 "
       id="polygon467-2-9"
       style="fill:#474747"
       transform="matrix(0.80000686,0,0,0.80000686,87.833923,-41.398783)" /><polygon
       points="132.89,6.885 131.868,7.906 136.686,7.906 135.663,6.885 "
       id="polygon469-6-27"
       style="fill:#595959"
       transform="matrix(0.80000686,0,0,0.80000686,87.833923,-41.398783)" /><polygon
       points="132.89,4.11 131.866,3.087 131.866,7.906 132.89,6.883 "
       id="polygon471-4-6"
       style="fill:#373737"
       transform="matrix(0.80000686,0,0,0.80000686,87.833923,-41.398783)" /></g><g
     transform="matrix(1.323205,0,0,1.2444349,-167.315,131.50064)"
     id="connector11"><desc
       id="desc3550-9">Pin</desc><rect
       x="192.38522"
       y="-39.872372"
       width="5.7472491"
       height="5.7424493"
       id="rect461-57"
       style="fill:#404040" /><rect
       x="194.14842"
       y="-38.110756"
       width="2.2184191"
       height="2.2184191"
       id="rect463-9" /><polygon
       points="132.89,4.11 135.664,4.11 136.687,3.087 131.868,3.087 "
       id="polygon465-83"
       style="fill:#2a2a29"
       transform="matrix(0.80000686,0,0,0.80000686,87.833923,-41.398783)" /><polygon
       points="135.664,4.113 135.664,6.885 136.687,7.906 136.687,3.087 "
       id="polygon467-1"
       style="fill:#474747"
       transform="matrix(0.80000686,0,0,0.80000686,87.833923,-41.398783)" /><polygon
       points="135.663,6.885 132.89,6.885 131.868,7.906 136.686,7.906 "
       id="polygon469-1"
       style="fill:#595959"
       transform="matrix(0.80000686,0,0,0.80000686,87.833923,-41.398783)" /><polygon
       points="132.89,6.883 132.89,4.11 131.866,3.087 131.866,7.906 "
       id="polygon471-9"
       style="fill:#373737"
       transform="matrix(0.80000686,0,0,0.80000686,87.833923,-41.398783)" /></g><g
     transform="matrix(1.323205,0,0,1.2444349,-167.315,138.7007)"
     id="connector12"><desc
       id="desc3550-3-2">Pin</desc><rect
       x="192.38522"
       y="-39.872372"
       width="5.7472491"
       height="5.7424493"
       id="rect461-4-5"
       style="fill:#404040" /><rect
       x="194.14842"
       y="-38.110756"
       width="2.2184191"
       height="2.2184191"
       id="rect463-5-4" /><polygon
       points="135.664,4.11 136.687,3.087 131.868,3.087 132.89,4.11 "
       id="polygon465-2-1"
       style="fill:#2a2a29"
       transform="matrix(0.80000686,0,0,0.80000686,87.833923,-41.398783)" /><polygon
       points="135.664,6.885 136.687,7.906 136.687,3.087 135.664,4.113 "
       id="polygon467-2-5"
       style="fill:#474747"
       transform="matrix(0.80000686,0,0,0.80000686,87.833923,-41.398783)" /><polygon
       points="132.89,6.885 131.868,7.906 136.686,7.906 135.663,6.885 "
       id="polygon469-6-7"
       style="fill:#595959"
       transform="matrix(0.80000686,0,0,0.80000686,87.833923,-41.398783)" /><polygon
       points="132.89,4.11 131.866,3.087 131.866,7.906 132.89,6.883 "
       id="polygon471-4-78"
       style="fill:#373737"
       transform="matrix(0.80000686,0,0,0.80000686,87.833923,-41.398783)" /></g><g
     transform="matrix(1.323205,0,0,1.2444349,-167.315,59.500018)"
     id="connector1"><rect
       x="192.38522"
       y="-39.872372"
       width="5.7472491"
       height="5.7424493"
       id="rect461-1"
       style="fill:#404040" /><rect
       x="194.14842"
       y="-38.110756"
       width="2.2184191"
       height="2.2184191"
       id="rect463-2" /><polygon
       points="132.89,4.11 135.664,4.11 136.687,3.087 131.868,3.087 "
       id="polygon465-22"
       style="fill:#2a2a29"
       transform="matrix(0.80000686,0,0,0.80000686,87.833923,-41.398783)" /><polygon
       points="135.664,4.113 135.664,6.885 136.687,7.906 136.687,3.087 "
       id="polygon467-28"
       style="fill:#474747"
       transform="matrix(0.80000686,0,0,0.80000686,87.833923,-41.398783)" /><polygon
       points="135.663,6.885 132.89,6.885 131.868,7.906 136.686,7.906 "
       id="polygon469-5"
       style="fill:#595959"
       transform="matrix(0.80000686,0,0,0.80000686,87.833923,-41.398783)" /><polygon
       points="132.89,6.883 132.89,4.11 131.866,3.087 131.866,7.906 "
       id="polygon471-1"
       style="fill:#373737"
       transform="matrix(0.80000686,0,0,0.80000686,87.833923,-41.398783)" /></g><g
     transform="matrix(1.323205,0,0,1.2444349,-167.315,66.70008)"
     id="connector2"><desc
       id="desc3550-3-86">Pin</desc><rect
       x="192.38522"
       y="-39.872372"
       width="5.7472491"
       height="5.7424493"
       id="rect461-4-4"
       style="fill:#404040" /><rect
       x="194.14842"
       y="-38.110756"
       width="2.2184191"
       height="2.2184191"
       id="rect463-5-72" /><polygon
       points="135.664,4.11 136.687,3.087 131.868,3.087 132.89,4.11 "
       id="polygon465-2-9"
       style="fill:#2a2a29"
       transform="matrix(0.80000686,0,0,0.80000686,87.833923,-41.398783)" /><polygon
       points="135.664,6.885 136.687,7.906 136.687,3.087 135.664,4.113 "
       id="polygon467-2-72"
       style="fill:#474747"
       transform="matrix(0.80000686,0,0,0.80000686,87.833923,-41.398783)" /><polygon
       points="132.89,6.885 131.868,7.906 136.686,7.906 135.663,6.885 "
       id="polygon469-6-6"
       style="fill:#595959"
       transform="matrix(0.80000686,0,0,0.80000686,87.833923,-41.398783)" /><polygon
       points="132.89,4.11 131.866,3.087 131.866,7.906 132.89,6.883 "
       id="polygon471-4-3"
       style="fill:#373737"
       transform="matrix(0.80000686,0,0,0.80000686,87.833923,-41.398783)" /></g><g
     transform="matrix(1.323205,0,0,1.2444349,-167.315,145.90076)"
     id="connector13"><desc
       id="desc3550-13">Pin</desc><rect
       x="192.38522"
       y="-39.872372"
       width="5.7472491"
       height="5.7424493"
       id="rect461-9"
       style="fill:#404040" /><rect
       x="194.14842"
       y="-38.110756"
       width="2.2184191"
       height="2.2184191"
       id="rect463-3" /><polygon
       points="132.89,4.11 135.664,4.11 136.687,3.087 131.868,3.087 "
       id="polygon465-88"
       style="fill:#2a2a29"
       transform="matrix(0.80000686,0,0,0.80000686,87.833923,-41.398783)" /><polygon
       points="135.664,4.113 135.664,6.885 136.687,7.906 136.687,3.087 "
       id="polygon467-9"
       style="fill:#474747"
       transform="matrix(0.80000686,0,0,0.80000686,87.833923,-41.398783)" /><polygon
       points="135.663,6.885 132.89,6.885 131.868,7.906 136.686,7.906 "
       id="polygon469-7"
       style="fill:#595959"
       transform="matrix(0.80000686,0,0,0.80000686,87.833923,-41.398783)" /><polygon
       points="132.89,6.883 132.89,4.11 131.866,3.087 131.866,7.906 "
       id="polygon471-98"
       style="fill:#373737"
       transform="matrix(0.80000686,0,0,0.80000686,87.833923,-41.398783)" /></g><g
     transform="matrix(1.323205,0,0,1.2444349,-167.315,153.10082)"
     id="connector14"><desc
       id="desc3550-3-1">Pin</desc><rect
       x="192.38522"
       y="-39.872372"
       width="5.7472491"
       height="5.7424493"
       id="rect461-4-05"
       style="fill:#404040" /><rect
       x="194.14842"
       y="-38.110756"
       width="2.2184191"
       height="2.2184191"
       id="rect463-5-3" /><polygon
       points="135.664,4.11 136.687,3.087 131.868,3.087 132.89,4.11 "
       id="polygon465-2-3"
       style="fill:#2a2a29"
       transform="matrix(0.80000686,0,0,0.80000686,87.833923,-41.398783)" /><polygon
       points="135.664,6.885 136.687,7.906 136.687,3.087 135.664,4.113 "
       id="polygon467-2-4"
       style="fill:#474747"
       transform="matrix(0.80000686,0,0,0.80000686,87.833923,-41.398783)" /><polygon
       points="132.89,6.885 131.868,7.906 136.686,7.906 135.663,6.885 "
       id="polygon469-6-11"
       style="fill:#595959"
       transform="matrix(0.80000686,0,0,0.80000686,87.833923,-41.398783)" /><polygon
       points="132.89,4.11 131.866,3.087 131.866,7.906 132.89,6.883 "
       id="polygon471-4-1"
       style="fill:#373737"
       transform="matrix(0.80000686,0,0,0.80000686,87.833923,-41.398783)" /></g></g><rect
   style="fill:#333333"
   id="rect3955"
   width="23.031496"
   height="23.031496"
   x="25.239643"
   y="73.965141" /><text
   style="font-size:4.10160208px;fill:#ffffff;font-family:OCRA"
   id="text637"
   font-size="4"
   x="74.638184"
   y="-39.810371"
   transform="matrix(0.01576243,1.025151,-0.97521129,0.01656961,0,0)">ATmega8</text>



<path
   d="m 9.593138,14.66041 c -2.70723,0 -4.93448,2.07067 -5.34437,4.78543 h -0.0836 V 38.8249 c 0,3.13568 2.42682,5.68942 5.43066,5.68942 3.00385,0 5.43603,-2.53679 5.43603,-5.68942 V 19.44867 h -0.0862 c -0.41525,-2.70064 -2.6452,-4.78826 -5.35245,-4.78826 z"
   id="path201"
   style="fill:#8d8c8c" /><text
   style="font-size:4.00003433px;fill:#ffffff;font-family:OCRA"
   id="text573"
   font-size="5"
   transform="matrix(0.99997361,0.00726484,-0.00726484,0.99997361,0,0)"
   x="56.453033"
   y="58.927422">GND</text>



<text
   style="font-size:4.00003433px;fill:#ffffff;font-family:OCRA"
   id="text573-0"
   font-size="5"
   transform="matrix(0.99997361,0.00726484,-0.00726484,0.99997361,0,0)"
   x="64.729919"
   y="73.47094"></text>
<text
   style="font-size:4.00003433px;fill:#ffffff;font-family:OCRA"
   font-size="5"
   transform="matrix(0.99997361,0.00726484,-0.00726484,0.99997361,0,0)"
   x="61.519676"
   y="73.751755"
   id="text3132">a1</text>









<text
   style="font-size:4.00003433px;fill:#ffffff;font-family:OCRA"
   id="text573-0-3-5"
   font-size="5"
   transform="matrix(0.99997361,0.00726484,-0.00726484,0.99997361,0,0)"
   x="61.204922"
   y="30.427301">d1</text>


















<text
   style="font-size:4.00003433px;fill:#ffffff;font-family:OCRA"
   id="text573-0-3-34"
   font-size="5"
   transform="matrix(0.99997361,0.00726484,-0.00726484,0.99997361,0,0)"
   x="63.069687"
   y="65.866074">+</text>



<text
   style="font-size:4.00003386px;fill:#ffffff;font-family:OCRA"
   font-size="5"
   transform="matrix(0.99997361,0.00726484,-0.00726484,0.99997361,0,0)"
   x="61.048996"
   y="81.014427"
   id="text3132-9">a2</text>
<text
   style="font-size:4.00003386px;fill:#ffffff;font-family:OCRA"
   font-size="5"
   transform="matrix(0.99997361,0.00726484,-0.00726484,0.99997361,0,0)"
   x="61.071579"
   y="88.155602"
   id="text3132-7">a3</text>
<text
   style="font-size:4.00003386px;fill:#ffffff;font-family:OCRA"
   font-size="5"
   transform="matrix(0.99997361,0.00726484,-0.00726484,0.99997361,0,0)"
   x="61.135693"
   y="95.355392"
   id="text3132-1">a4</text>
<text
   style="font-size:4.00003386px;fill:#ffffff;font-family:OCRA"
   font-size="5"
   transform="matrix(0.99997361,0.00726484,-0.00726484,0.99997361,0,0)"
   x="61.149269"
   y="101.75543"
   id="text3132-6">a5</text>
<text
   style="font-size:4.00003386px;fill:#ffffff;font-family:OCRA"
   font-size="5"
   transform="matrix(0.99997361,0.00726484,-0.00726484,0.99997361,0,0)"
   x="61.21883"
   y="108.15515"
   id="text3132-91">a6</text>
<text
   style="font-size:4.00003386px;fill:#ffffff;font-family:OCRA"
   font-size="5"
   transform="matrix(0.99997361,0.00726484,-0.00726484,0.99997361,0,0)"
   x="60.735153"
   y="37.815212"
   id="text3132-3">d2</text>
<text
   style="font-size:4.00003386px;fill:#ffffff;font-family:OCRA"
   font-size="5"
   transform="matrix(0.99997361,0.00726484,-0.00726484,0.99997361,0,0)"
   x="60.757736"
   y="44.956299"
   id="text3132-35">d3</text>
<text
   style="font-size:4.00003386px;fill:#ffffff;font-family:OCRA"
   font-size="5"
   transform="matrix(0.99997361,0.00726484,-0.00726484,0.99997361,0,0)"
   x="60.816036"
   y="51.356102"
   id="text3132-33">d4</text>
</svg>